<svg width="14" height="14" viewBox="0 0 14 14" fill="none" xmlns="http://www.w3.org/2000/svg">
<path fill-rule="evenodd" clip-rule="evenodd" d="M12.6 6.9999C12.6 10.0927 10.0928 12.5999 7 12.5999C3.9072 12.5999 1.39999 10.0927 1.39999 6.9999C1.39999 3.90711 3.9072 1.3999 7 1.3999C10.0928 1.3999 12.6 3.90711 12.6 6.9999ZM7.7 4.1999C7.7 4.5865 7.3866 4.8999 7 4.8999C6.6134 4.8999 6.3 4.5865 6.3 4.1999C6.3 3.8133 6.6134 3.4999 7 3.4999C7.3866 3.4999 7.7 3.8133 7.7 4.1999ZM6.3 6.2999C5.9134 6.2999 5.6 6.6133 5.6 6.9999C5.6 7.3865 5.9134 7.6999 6.3 7.6999V9.7999C6.3 10.1865 6.6134 10.4999 7 10.4999H7.7C8.0866 10.4999 8.4 10.1865 8.4 9.7999C8.4 9.4133 8.0866 9.0999 7.7 9.0999V6.9999C7.7 6.6133 7.3866 6.2999 7 6.2999H6.3Z" fill="#FB4141"/>
</svg>
